<?xml version="1.0" standalone="no"?>
<!DOCTYPE svg PUBLIC "-//W3C//DTD SVG 20010904//EN"
 "http://www.w3.org/TR/2001/REC-SVG-20010904/DTD/svg10.dtd">
<svg version="1.0" xmlns="http://www.w3.org/2000/svg"
 width="400.000000pt" height="400.000000pt" viewBox="0 0 400.000000 400.000000"
 preserveAspectRatio="xMidYMid meet">
<metadata>
Created by potrace 1.14, written by Peter Selinger 2001-2017
</metadata>
<g transform="translate(0.000000,400.000000) scale(0.100000,-0.100000)"
fill="#000000" stroke="none">
<path d="M0 2000 l0 -2000 2000 0 2000 0 0 2000 0 2000 -2000 0 -2000 0 0
-2000z m2017 1011 c24 -12 48 -32 57 -49 8 -16 27 -93 41 -171 33 -181 56
-244 99 -270 18 -11 88 -34 155 -50 169 -40 188 -56 190 -164 2 -115 -41 -152
-206 -173 -146 -19 -198 -40 -218 -89 -22 -52 -35 -239 -35 -525 0 -275 11
-411 40 -476 25 -58 85 -92 197 -110 108 -18 182 -52 207 -95 10 -18 20 -58
23 -93 3 -50 0 -67 -17 -94 -61 -97 -357 -130 -555 -62 -120 41 -215 125 -265
233 -57 122 -89 361 -91 677 -1 96 -4 252 -8 347 -7 201 -7 201 -117 274 -88
59 -104 85 -104 172 0 106 34 168 115 209 105 53 109 60 145 251 35 183 67
247 135 266 56 17 167 12 212 -8z"/>
</g>
</svg>
