<svg width="116" height="30" viewBox="0 0 116 30" fill="none" xmlns="http://www.w3.org/2000/svg">
<path d="M9.71875 21.6562C9.71875 22.5833 8.77083 23.0469 6.875 23.0469C4.97917 23.0469 3.64062 22.401 2.85938 21.1094C2.26562 20.1094 1.96875 18.0938 1.96875 15.0625V14.3906L1.9375 13.4219L1.92188 13.0938L1.90625 12.1094C1.90625 11.3698 1.85417 10.8958 1.75 10.6875C1.65625 10.4688 1.34375 10.2135 0.8125 9.92188C0.291667 9.63021 0.03125 9.25 0.03125 8.78125V8.5C0.03125 7.6875 0.328125 7.14062 0.921875 6.85938C1.51562 6.56771 1.86458 6.29688 1.96875 6.04688C1.97917 6.01562 2.0625 5.55729 2.21875 4.67188C2.38542 3.78646 2.57292 3.1875 2.78125 2.875C3 2.5625 3.47917 2.40625 4.21875 2.40625C4.96875 2.40625 5.44271 2.63542 5.64062 3.09375C5.71354 3.26042 5.82812 3.80729 5.98438 4.73438C6.14062 5.66146 6.31771 6.24479 6.51562 6.48438C6.71354 6.71354 7.1875 6.90104 7.9375 7.04688C8.6875 7.19271 9.15625 7.33854 9.34375 7.48438C9.54167 7.63021 9.64062 7.98438 9.64062 8.54688C9.64062 9.10938 9.40625 9.49479 8.9375 9.70312C8.75 9.78646 8.30729 9.85938 7.60938 9.92188C6.91146 9.97396 6.4375 10.1406 6.1875 10.4219C5.94792 10.7031 5.82812 11.6823 5.82812 13.3594L5.8125 13.6875C5.80208 13.9062 5.79688 14.125 5.79688 14.3438L5.78125 14.6719V15.3438C5.78125 17.4583 5.92188 18.724 6.20312 19.1406C6.49479 19.5573 7 19.8073 7.71875 19.8906C8.4375 19.974 8.94792 20.1354 9.25 20.375C9.5625 20.6146 9.71875 21.0417 9.71875 21.6562ZM13.2969 2.39062C13.3281 2.26562 13.3438 2.08333 13.3438 1.84375C13.3438 1.60417 13.4688 1.35938 13.7188 1.10938C13.9792 0.848958 14.3594 0.71875 14.8594 0.71875L15.2812 0.671875H15.6406L15.7188 0.6875L16.2031 0.734375C16.2448 0.744792 16.2917 0.75 16.3438 0.75C17.0938 0.75 17.4688 1.16667 17.4688 2L17.5156 2.4375V2.79688L17.4844 3.09375L17.4375 3.4375C17.4375 4.27083 16.75 4.6875 15.375 4.6875H15.2344L15.1562 4.67188L14.6094 4.625C14.5573 4.61458 14.5104 4.60938 14.4688 4.60938C13.7292 4.60938 13.3594 4.23438 13.3594 3.48438C13.3385 3.38021 13.3281 3.30729 13.3281 3.26562L13.2969 2.98438V2.39062ZM15.375 23.0625H14.9688C14.2083 23.0625 13.7448 22.9583 13.5781 22.75C13.3073 22.4062 13.1719 21.8021 13.1719 20.9375C13.1719 20.0729 13.2135 19.3021 13.2969 18.625C13.3906 17.9479 13.4375 17.5521 13.4375 17.4375L13.4531 17.0312C13.4531 16.8958 13.4531 16.7604 13.4531 16.625L13.4688 16.2188V14.1406L13.4844 13.5156V12.6875L13.4688 12.0625C13.4688 11.9271 13.4688 11.7917 13.4688 11.6562L13.4531 11.25L13.0469 8.75V8.375C13.0469 7.875 13.151 7.5625 13.3594 7.4375C13.5781 7.3125 14.0208 7.25 14.6875 7.25H15.2969C16.276 7.25 16.8542 7.52083 17.0312 8.0625C17.125 8.34375 17.1719 9.71354 17.1719 12.1719C17.1719 14.6302 17.1875 16.0521 17.2188 16.4375C17.25 16.8125 17.3385 17.4219 17.4844 18.2656C17.6406 19.099 17.7188 19.6719 17.7188 19.9844L17.75 20.375V20.9531C17.75 21.9115 17.6042 22.5052 17.3125 22.7344C17.0208 22.9531 16.375 23.0625 15.375 23.0625ZM22.0625 9.6875C22.0625 8.86458 22.1406 8.30729 22.2969 8.01562C22.4635 7.72396 22.8854 7.57812 23.5625 7.57812C24.25 7.57812 24.75 7.69271 25.0625 7.92188C25.125 7.96354 25.2708 8.11979 25.5 8.39062C25.7396 8.65104 25.9219 8.78125 26.0469 8.78125C26.1823 8.78125 26.4792 8.65625 26.9375 8.40625C28.1354 7.73958 29.1406 7.40625 29.9531 7.40625H30.7656C31.526 7.40625 32.2396 7.56771 32.9062 7.89062C34.2292 8.53646 35.0573 9.61979 35.3906 11.1406C35.5573 11.8802 35.6406 12.9792 35.6406 14.4375L35.7656 18.375L35.9062 21.4844C35.9062 21.9427 35.8073 22.2604 35.6094 22.4375C35.4219 22.6146 34.9792 22.7031 34.2812 22.7031C33.2188 22.7031 32.5833 22.2865 32.375 21.4531C32.2396 20.9219 32.1198 19.3594 32.0156 16.7656C31.9219 14.1719 31.7552 12.5625 31.5156 11.9375C30.724 10.9375 29.8698 10.3333 28.9531 10.125C27.6927 10.125 26.8073 10.5729 26.2969 11.4688C25.9115 12.1354 25.7188 13.4583 25.7188 15.4375L25.6719 16.6875L25.6406 18.375C25.6406 20.3958 25.5729 21.5833 25.4375 21.9375C25.1979 22.5625 24.5365 22.875 23.4531 22.875C22.7865 22.875 22.3646 22.7708 22.1875 22.5625C22.0104 22.3438 21.9219 21.9896 21.9219 21.5L21.9375 21.0938C21.9375 20.6771 21.9375 20.2656 21.9375 19.8594L22 17.375V14.4531L22.0156 14.0469C22.0156 13.776 22.0156 13.5052 22.0156 13.2344L22.0469 11.2188L22.0625 10.8281V9.6875ZM38.5625 8.65625C38.5625 7.95833 39.1562 7.60938 40.3438 7.60938C40.9792 7.60938 41.4479 7.73438 41.75 7.98438C42.0625 8.23438 42.3125 8.57812 42.5 9.01562C42.6979 9.45312 43.1042 10.849 43.7188 13.2031C44.3438 15.5469 44.9531 17.1979 45.5469 18.1562L45.75 18.4219C46.6354 18.4219 47.5781 16.0781 48.5781 11.3906C48.974 9.53646 49.3073 8.36458 49.5781 7.875C49.849 7.38542 50.349 7.14062 51.0781 7.14062C52.3281 7.14062 52.9531 7.41146 52.9531 7.95312C52.9531 8.41146 52.4219 10.724 51.3594 14.8906C50.2969 19.0573 49.3802 21.9375 48.6094 23.5312C47.849 25.125 46.8646 26.4479 45.6562 27.5C44.4583 28.5521 43.3698 29.0781 42.3906 29.0781C41.4219 29.0781 40.7552 28.8542 40.3906 28.4062C40.3906 27.8542 40.6823 27.3125 41.2656 26.7812C41.4219 26.6458 41.8646 26.4583 42.5938 26.2188C43.3333 25.9896 43.8854 25.6354 44.25 25.1562C44.625 24.6771 44.8125 24.0104 44.8125 23.1562C44.8125 22.7188 44.3073 21.7917 43.2969 20.375C42.2969 18.9583 41.5156 17.6042 40.9531 16.3125C40.401 15.0208 39.8646 13.4583 39.3438 11.625C38.8229 9.78125 38.5625 8.79167 38.5625 8.65625ZM55.7031 11.3906C55.7031 9.49479 56.7812 8.15625 58.9375 7.375C59.7083 7.08333 60.5521 6.9375 61.4688 6.9375H61.8906C63.276 6.9375 64.5156 7.13021 65.6094 7.51562C66.7135 7.89062 67.2656 8.36458 67.2656 8.9375C67.2656 9.38542 67.1458 9.77604 66.9062 10.1094C66.6771 10.4427 66.4427 10.6094 66.2031 10.6094C65.974 10.6094 65.3698 10.4792 64.3906 10.2188C63.4115 9.95833 62.5312 9.82812 61.75 9.82812C60.9792 9.82812 60.3802 9.96354 59.9531 10.2344C59.526 10.5052 59.3125 10.8958 59.3125 11.4062C59.3125 11.9167 59.6458 12.3594 60.3125 12.7344C60.5938 12.8906 61.1198 13.0833 61.8906 13.3125C64.1615 13.9792 65.7188 14.6823 66.5625 15.4219C67.4167 16.151 67.8438 17.1146 67.8438 18.3125V18.7188C67.8438 19.3438 67.6927 19.9583 67.3906 20.5625C67.0885 21.1667 66.6771 21.6615 66.1562 22.0469C65.0521 22.8698 63.6979 23.2812 62.0938 23.2812H61.2344C59.7552 23.2812 58.4323 23.0521 57.2656 22.5938C56.099 22.1354 55.5156 21.6146 55.5156 21.0312C55.5156 20.4479 55.7188 19.9531 56.125 19.5469C56.2708 19.401 56.5312 19.3281 56.9062 19.3281C56.9479 19.3281 57.5729 19.5052 58.7812 19.8594C60.0104 20.2135 61.0417 20.3906 61.875 20.3906C63.4375 20.3906 64.2188 19.7344 64.2188 18.4219C64.2188 17.9531 63.8281 17.5312 63.0469 17.1562C62.7031 16.9896 61.7917 16.6771 60.3125 16.2188C58.8333 15.75 57.8125 15.2917 57.25 14.8438C56.6979 14.3854 56.3021 13.8958 56.0625 13.375C55.8229 12.8542 55.7031 12.1927 55.7031 11.3906ZM81.75 14.7031C81.75 13.1823 81.526 12.0729 81.0781 11.375C80.4531 10.3958 79.6562 9.90625 78.6875 9.90625H78.0625C76.8646 9.90625 75.9792 10.3802 75.4062 11.3281C75.0729 11.8802 74.9062 12.9323 74.9062 14.4844V16.3281L74.9219 16.4844L74.9375 16.9375L74.9844 17.6875C74.9844 18.4896 75.2188 19.151 75.6875 19.6719C76.1667 20.1823 76.8177 20.4375 77.6406 20.4375H78.0781C79.1302 20.4375 79.9948 20.0365 80.6719 19.2344C81.3594 18.4219 81.7031 17.4062 81.7031 16.1875L81.7344 15.8594L81.75 15.2031V14.7031ZM81.5 22.7812C80.6562 23.1146 79.849 23.2812 79.0781 23.2812C78.3177 23.2812 77.7552 23.2292 77.3906 23.125C77.0365 23.0208 76.6823 22.9062 76.3281 22.7812C75.974 22.6562 75.7552 22.5938 75.6719 22.5938C75.1823 22.5938 74.9375 24 74.9375 26.8125C74.9375 27.7917 74.7969 28.4688 74.5156 28.8438C74.2448 29.2188 73.7292 29.4062 72.9688 29.4062H72.6406C71.8906 29.4062 71.4427 29.2604 71.2969 28.9688C71.1615 28.6771 71.0938 27.5156 71.0938 25.4844V25.125L71.1094 24.7656V23.3125L71.1875 19.0312V13.3438C71.1875 9.92708 71.1979 8.18229 71.2188 8.10938C71.3646 7.59896 72.0469 7.34375 73.2656 7.34375C73.7344 7.34375 74.1354 7.5 74.4688 7.8125C74.8021 8.11458 75.0312 8.26562 75.1562 8.26562C75.2812 8.26562 75.5521 8.15104 75.9688 7.92188C77.0417 7.33854 78.0938 7.04688 79.125 7.04688C82.1875 7.04688 84.1562 8.40625 85.0312 11.125C85.3542 12.1146 85.5156 13.1979 85.5156 14.375V15.1562C85.5156 16.2917 85.3698 17.3802 85.0781 18.4219C84.4635 20.6198 83.2708 22.0729 81.5 22.7812ZM95.1719 20.375H95.8125C96.9479 20.375 97.7969 19.9375 98.3594 19.0625C98.9219 18.1875 99.2031 17.0104 99.2031 15.5312V14.7031C99.2031 13.1927 98.901 12.0104 98.2969 11.1562C97.7031 10.2917 96.875 9.85938 95.8125 9.85938H95.3438C94.3125 9.85938 93.4844 10.2656 92.8594 11.0781C92.2448 11.8802 91.9375 13.0365 91.9375 14.5469V15.5469C91.9375 17.0052 92.2188 18.1771 92.7812 19.0625C93.3542 19.9375 94.151 20.375 95.1719 20.375ZM103.031 14.2969V15.3906C103.031 16.4948 102.859 17.5729 102.516 18.625C102.182 19.6771 101.724 20.526 101.141 21.1719C100.557 21.8073 99.7969 22.3333 98.8594 22.75C97.9323 23.1667 96.9167 23.375 95.8125 23.375H94.9844C92.8698 23.375 91.1562 22.625 89.8438 21.125C88.6979 19.8229 88.125 18.0052 88.125 15.6719V14.5781C88.125 13.4115 88.3021 12.3333 88.6562 11.3438C89.0208 10.3542 89.5052 9.54167 90.1094 8.90625C90.724 8.27083 91.5104 7.77604 92.4688 7.42188C93.4375 7.06771 94.4948 6.89062 95.6406 6.89062L95.9219 6.90625C96.8906 6.90625 97.8229 7.07292 98.7188 7.40625C100.583 8.11458 101.854 9.40104 102.531 11.2656C102.865 12.1719 103.031 13.1823 103.031 14.2969ZM115.156 21.6562C115.156 22.5833 114.208 23.0469 112.312 23.0469C110.417 23.0469 109.078 22.401 108.297 21.1094C107.703 20.1094 107.406 18.0938 107.406 15.0625V14.3906L107.375 13.4219L107.359 13.0938L107.344 12.1094C107.344 11.3698 107.292 10.8958 107.188 10.6875C107.094 10.4688 106.781 10.2135 106.25 9.92188C105.729 9.63021 105.469 9.25 105.469 8.78125V8.5C105.469 7.6875 105.766 7.14062 106.359 6.85938C106.953 6.56771 107.302 6.29688 107.406 6.04688C107.417 6.01562 107.5 5.55729 107.656 4.67188C107.823 3.78646 108.01 3.1875 108.219 2.875C108.438 2.5625 108.917 2.40625 109.656 2.40625C110.406 2.40625 110.88 2.63542 111.078 3.09375C111.151 3.26042 111.266 3.80729 111.422 4.73438C111.578 5.66146 111.755 6.24479 111.953 6.48438C112.151 6.71354 112.625 6.90104 113.375 7.04688C114.125 7.19271 114.594 7.33854 114.781 7.48438C114.979 7.63021 115.078 7.98438 115.078 8.54688C115.078 9.10938 114.844 9.49479 114.375 9.70312C114.188 9.78646 113.745 9.85938 113.047 9.92188C112.349 9.97396 111.875 10.1406 111.625 10.4219C111.385 10.7031 111.266 11.6823 111.266 13.3594L111.25 13.6875C111.24 13.9062 111.234 14.125 111.234 14.3438L111.219 14.6719V15.3438C111.219 17.4583 111.359 18.724 111.641 19.1406C111.932 19.5573 112.438 19.8073 113.156 19.8906C113.875 19.974 114.385 20.1354 114.688 20.375C115 20.6146 115.156 21.0417 115.156 21.6562Z" fill="#040404"/>
</svg>
